# xmcd CD database file
#
# Track frame offsets:
#	183
#	59283
#	88533
#	114483
#	139383
#	161808
#
# Disc length: 3753 seconds
#
# Revision: 2
# Processed by: cddbd v1.5.2PL0 Copyright (c) Steve Scherf et al.
# Submitted via: CDex 1.70beta2
#
DISCID=4f0ea706
DTITLE=Monks of the Dip Tse Chok Ling Monastery, Dharamsala / Sacred Ceremonies: Ritual Music of Tibetan Buddhism
DYEAR=1989
DGENRE=Meditative
TTITLE0=The Offerings For General Protectors (Sarkam)
TTITLE1=A Prayer Of Kala Rupa
TTITLE2=The Praises For Guyashamaya (Sangva Duva)
TTITLE3=The Prayers Of Forgiveness (Sosol)
TTITLE4=A Traditional Composition For Gya Ling And Dung Chen
TTITLE5=Dedications In Verses (Monlam)/Guru Puja (Lama Chophey Tsok)
EXTD= YEAR: 1989
EXTT0=
EXTT1=
EXTT2=
EXTT3=
EXTT4=
EXTT5=
PLAYORDER=
.
